<svg width="79" height="53" viewBox="0 0 79 53" fill="none" xmlns="http://www.w3.org/2000/svg">
<path fill-rule="evenodd" clip-rule="evenodd" d="M3.72809 0.170584H0.750528V15.2078H8.94829V12.7621H3.72809V0.170584ZM17.8924 0.170584H14.8575L9.37711 15.2078H11.6985C11.9262 15.2151 12.149 15.1408 12.3269 14.9983C12.4813 14.8795 12.6006 14.721 12.6722 14.5397L13.6119 11.5958H19.1496L20.1008 14.5511C20.1737 14.7363 20.2949 14.8986 20.4517 15.0211C20.6358 15.1535 20.8594 15.2194 21.0859 15.2078H23.3731L17.8924 0.170584ZM15.8089 4.768C15.892 4.53388 15.9827 4.25829 16.0808 3.94124C16.1789 3.62419 16.2733 3.28097 16.3638 2.91161C16.4618 3.28134 16.5599 3.62289 16.6582 3.93623C16.7566 4.24957 16.8509 4.52321 16.9412 4.75715L18.4698 9.5129H14.2801L15.8089 4.768ZM33.4392 1.59731C32.8985 1.07927 32.2566 0.678442 31.5538 0.419919C30.7878 0.135211 29.9762 -0.00682949 29.159 0.000830306C28.4642 -0.0115004 27.7738 0.113617 27.1276 0.36899C26.5675 0.592713 26.0576 0.925593 25.6274 1.34825C25.2259 1.74641 24.9099 2.22233 24.6988 2.74687C24.4897 3.25931 24.3821 3.80744 24.3818 4.36088C24.3652 4.95436 24.4596 5.54572 24.6601 6.10456C24.8249 6.54069 25.0729 6.94066 25.3903 7.28223C25.6878 7.59607 26.0386 7.85477 26.4263 8.04638C26.8111 8.23731 27.2083 8.40187 27.6154 8.53893C28.0191 8.67492 28.4153 8.80143 28.8042 8.9185C29.1626 9.02278 29.5096 9.16262 29.8402 9.33591C30.1242 9.48336 30.3733 9.68993 30.5707 9.94172C30.7657 10.2151 30.8637 10.5459 30.849 10.8815C30.8695 11.1637 30.8296 11.447 30.732 11.7126C30.6343 11.9781 30.4811 12.2198 30.2827 12.4215C29.8401 12.7917 29.2724 12.9782 28.6965 12.9424C28.2828 12.9521 27.8712 12.8809 27.4849 12.7328C27.1723 12.6075 26.8727 12.452 26.5902 12.2687C26.3336 12.0989 26.1091 11.9442 25.9165 11.8045C25.7568 11.6767 25.5604 11.6033 25.3561 11.595C25.2228 11.5943 25.0918 11.6295 24.9768 11.6968C24.8621 11.7619 24.7663 11.8556 24.6985 11.9687L23.8152 13.384C24.1051 13.6949 24.4322 13.9687 24.7892 14.1994C25.1618 14.4425 25.5559 14.651 25.9666 14.8222C26.3851 14.9968 26.8192 15.1313 27.2631 15.224C27.7081 15.3179 28.1616 15.3654 28.6163 15.3656C29.3462 15.3785 30.0714 15.2476 30.7507 14.9805C31.3437 14.7437 31.8814 14.3872 32.3302 13.9331C32.7625 13.4881 33.0963 12.9571 33.3098 12.3747C33.5353 11.7622 33.6484 11.114 33.6437 10.4613C33.6582 9.91589 33.5636 9.37311 33.3654 8.86479C33.1957 8.44997 32.9457 8.07281 32.6297 7.75502C32.3228 7.45234 31.9715 7.1984 31.5878 7.002C31.2011 6.80298 30.8021 6.62898 30.3931 6.48107C29.985 6.33396 29.5868 6.19621 29.1985 6.06783C28.8396 5.95212 28.4912 5.80625 28.1569 5.63177C27.8761 5.48943 27.626 5.29323 27.4209 5.05434C27.23 4.81564 27.1312 4.51631 27.1426 4.21088C27.1329 3.96991 27.1738 3.72957 27.2625 3.50533C27.3513 3.28109 27.486 3.0779 27.658 2.90883C28.084 2.54757 28.6351 2.36852 29.1921 2.41043C29.5384 2.40425 29.8831 2.45792 30.2112 2.56905C30.4787 2.66268 30.7381 2.77818 30.9867 2.91439C31.2093 3.03887 31.4041 3.15399 31.5711 3.25973C31.7076 3.35573 31.8686 3.41076 32.0353 3.41835C32.1683 3.42298 32.2998 3.38957 32.4145 3.32207C32.5311 3.24076 32.6232 3.12914 32.6809 2.99926L33.4392 1.59731ZM34.3224 0.170584V2.59381H38.3761V15.2078H41.3428V2.59381H45.3964V0.170584H34.3221H34.3224ZM9.72273 34.8139C9.64066 34.8572 9.56294 34.9084 9.49066 34.9666C9.31938 35.1549 9.12976 35.3255 8.92463 35.4762C8.54047 35.7542 8.09269 35.9314 7.6223 35.9915C7.34446 36.0273 7.06453 36.0443 6.78441 36.0425C6.27694 36.0455 5.7761 35.9271 5.32374 35.6971C4.85767 35.4557 4.45294 35.1109 4.1405 34.6892C3.78047 34.199 3.51025 33.6489 3.3424 33.0643C3.13606 32.3507 3.03685 31.6104 3.04799 30.8676C3.03786 30.1324 3.12735 29.3993 3.31402 28.6881C3.46457 28.1071 3.71974 27.5584 4.06703 27.0688C4.36809 26.6424 4.76894 26.2961 5.2346 26.0603C5.70026 25.8244 6.21658 25.706 6.73849 25.7156C7.16097 25.7029 7.58242 25.7642 7.98378 25.8967C8.26789 25.9978 8.53957 26.1308 8.79357 26.2933C9.00859 26.4367 9.18974 26.5688 9.33705 26.6896C9.46363 26.8024 9.62614 26.8666 9.79564 26.8707C9.92621 26.8789 10.0558 26.843 10.1635 26.7689C10.249 26.7022 10.3269 26.6262 10.3956 26.5424L11.3921 25.151C10.8493 24.5462 10.1857 24.0621 9.44418 23.7298C8.59938 23.3575 7.68352 23.1739 6.76048 23.1919C5.81694 23.1809 4.88218 23.3741 4.02028 23.7582C3.20142 24.1273 2.47158 24.6682 1.88033 25.3444C1.26493 26.0564 0.793797 26.8813 0.493125 27.7732C0.155481 28.7702 -0.0110575 29.8172 0.000569307 30.8698C-0.0101976 31.9161 0.144584 32.9575 0.459173 33.9554C0.73678 34.8437 1.18271 35.6702 1.77264 36.39C2.33815 37.0699 3.04796 37.6152 3.85054 37.9865C4.71414 38.378 5.65377 38.5733 6.60186 38.5584C7.6069 38.5838 8.60439 38.3785 9.51764 37.9581C10.3355 37.5591 11.0387 36.9592 11.5616 36.2144L10.3725 34.9344C10.3214 34.8769 10.2586 34.831 10.1883 34.7997C10.1179 34.7685 10.0418 34.7526 9.96483 34.7532C9.88031 34.7534 9.79711 34.7742 9.72245 34.8139H9.72273ZM25.1504 23.3614H22.1612V29.7815H16.0691V23.3614H13.0799V38.3983H16.0691V31.8867H22.1612V38.3983H25.1504V23.3614ZM34.99 23.3614H31.9554L26.475 38.3983H28.7964C29.0241 38.4057 29.2469 38.3315 29.4247 38.1891C29.5792 38.0703 29.6986 37.9118 29.7701 37.7305L30.7101 34.7863H36.2478L37.199 37.7416C37.2718 37.9268 37.393 38.0891 37.5499 38.2116C37.734 38.344 37.9576 38.4099 38.1841 38.3983H40.4712L34.99 23.3614ZM32.9065 27.9585C32.9898 27.7247 33.0805 27.4492 33.1784 27.132C33.2764 26.8148 33.3707 26.4716 33.4614 26.1024C33.5594 26.4721 33.6575 26.8137 33.7558 27.127C33.8542 27.4403 33.9485 27.714 34.0389 27.9479L35.5677 32.7037H31.378L32.9065 27.9585ZM43.4254 23.3614H41.8632V38.3983H44.4901V29.4862C44.4901 29.0864 44.4675 28.6524 44.4222 28.1842L51.8049 37.8874C51.9303 38.0465 52.0862 38.179 52.2635 38.277C52.4461 38.3624 52.6464 38.4031 52.8479 38.3958H54.3745V23.3614H51.7587V32.1708C51.7587 32.616 51.7814 33.0878 51.8269 33.5861L44.4214 23.8255C44.3521 23.7424 44.2784 23.6631 44.2007 23.5879C44.0795 23.4696 43.9219 23.3958 43.7535 23.3783C43.6445 23.366 43.5348 23.3603 43.4251 23.3614V23.3614H43.4254ZM65.9525 34.8147C65.8704 34.8581 65.7927 34.9092 65.7204 34.9675C65.5492 35.1558 65.3596 35.3264 65.1544 35.477C64.7702 35.755 64.3225 35.9322 63.8521 35.9924C63.5742 36.0281 63.2943 36.0451 63.0142 36.0433C62.5067 36.0464 62.0058 35.928 61.5535 35.698C61.0874 35.4565 60.6827 35.1118 60.3703 34.69C60.0102 34.1999 59.74 33.6497 59.5722 33.0652C59.3658 32.3515 59.2666 31.6112 59.2777 30.8684C59.2676 30.1333 59.3571 29.4001 59.5438 28.689C59.6943 28.108 59.9495 27.5592 60.2968 27.0697C60.5979 26.6432 60.9987 26.297 61.4644 26.0611C61.93 25.8252 62.4463 25.7069 62.9682 25.7164C63.3908 25.7038 63.8123 25.7651 64.2138 25.8976C64.4978 25.9986 64.7694 26.1316 65.0233 26.2941C65.2385 26.4375 65.4197 26.5696 65.5668 26.6904C65.6934 26.8032 65.8559 26.8674 66.0254 26.8715C66.156 26.8797 66.2855 26.8439 66.3933 26.7697C66.4788 26.7029 66.5567 26.627 66.6256 26.5432L67.6219 25.1518C67.0791 24.5471 66.4155 24.0629 65.6739 23.7306C64.8291 23.3583 63.9133 23.1747 62.9902 23.1927C62.0467 23.1818 61.1119 23.375 60.25 23.759C59.4312 24.1281 58.7013 24.6691 58.1101 25.3452C57.4947 26.0573 57.0235 26.8822 56.7229 27.774C56.3852 28.7711 56.2187 29.818 56.2303 30.8707C56.2196 31.9169 56.3743 32.9583 56.6889 33.9562C56.9666 34.8444 57.4126 35.671 58.0024 36.3909C58.5679 37.0707 59.2777 37.6161 60.0803 37.9873C60.945 38.3779 61.8855 38.5719 62.8341 38.5553C63.8392 38.5808 64.8367 38.3754 65.7499 37.955C66.5677 37.5561 67.271 36.9561 67.7938 36.2114L66.6048 34.9313C66.5536 34.8738 66.4908 34.8279 66.4205 34.7967C66.3502 34.7654 66.274 34.7496 66.1971 34.7501C66.1118 34.751 66.0279 34.7729 65.953 34.8139L65.9525 34.8147ZM69.3672 23.3614V38.3983H78.5387L78.5501 36.033H72.3565V31.9774H77.1687V29.7014H72.3565V25.7267H78.5387V23.3614H69.3672Z" fill="#FAFAFA"/>
<path fill-rule="evenodd" clip-rule="evenodd" d="M0 45.6387V52.4054H1.3452V49.6843H3.55165V48.6194H1.3452V46.7034H3.97964V45.6387H0.000280247H0ZM4.83563 45.6387V52.4054H8.96275L8.96804 51.3404H6.18081V49.5163H8.34637V48.4919H6.18081V46.7034H8.96359V45.6387H4.83563ZM11.7249 49.8015C11.8169 49.7968 11.9086 49.8143 11.9924 49.8524C12.0632 49.8945 12.122 49.9543 12.1629 50.0258L13.3963 52.1351C13.4469 52.2203 13.5194 52.2904 13.6064 52.3379C13.6933 52.3854 13.7915 52.4087 13.8905 52.4054H15.0979L13.5847 49.9393C13.5254 49.8501 13.4552 49.7688 13.3757 49.6972C13.3023 49.6318 13.222 49.5746 13.1363 49.5266C13.3456 49.4539 13.5427 49.35 13.7207 49.2182C13.8862 49.0954 14.0316 48.9475 14.1515 48.7799C14.2693 48.6138 14.3596 48.4297 14.4189 48.2348C14.4809 48.0308 14.5119 47.8186 14.5108 47.6053C14.5139 47.3338 14.4654 47.0641 14.368 46.8106C14.2724 46.5687 14.1172 46.3548 13.9169 46.1889C13.6833 46.001 13.4137 45.8631 13.1247 45.7837C12.7464 45.6799 12.3551 45.631 11.9629 45.6387H9.92476V52.4054H11.2699V49.8015H11.7235H11.7249ZM11.2713 46.6678H11.9642C12.2988 46.6413 12.6317 46.7363 12.9018 46.9355C13.0061 47.0318 13.0877 47.1501 13.1406 47.2818C13.1936 47.4136 13.2165 47.5554 13.2079 47.6972C13.2094 47.8539 13.1844 48.0098 13.1341 48.1583C13.0873 48.2954 13.0097 48.42 12.9073 48.5225C12.7967 48.6301 12.6637 48.712 12.5177 48.7621C12.3366 48.8236 12.146 48.8529 11.9548 48.8487H11.2719V46.6678H11.2713ZM17.2635 45.6382H15.9183V52.4054H17.2626V45.6387L17.2635 45.6382ZM21.8342 45.6382H20.4684L18.002 52.4048H19.0467C19.1492 52.4081 19.2494 52.3746 19.3294 52.3105C19.3989 52.257 19.4526 52.1858 19.485 52.1043L19.9077 50.7794H22.3994L22.8274 52.1093C22.8603 52.1926 22.9148 52.2656 22.9854 52.3208C23.0683 52.3801 23.1689 52.4096 23.2706 52.4042H24.3003L21.8342 45.6382ZM20.8967 47.7069C20.9338 47.6015 20.9745 47.4775 21.0188 47.3348C21.0632 47.1922 21.1057 47.0376 21.1463 46.8712C21.1902 47.0382 21.2344 47.1919 21.2787 47.3323C21.3231 47.4728 21.3656 47.5959 21.4062 47.7016L22.0941 49.8419H20.2088L20.8967 47.7069ZM29.1451 52.4054H30.3525L32.8292 45.6387H31.7489C31.6465 45.6357 31.5461 45.667 31.4637 45.7278C31.3916 45.7794 31.3366 45.8512 31.3056 45.9343L30.037 49.9187C29.9791 50.068 29.929 50.2203 29.8867 50.3748C29.8407 50.5395 29.799 50.7119 29.7617 50.8921C29.7176 50.7155 29.67 50.5456 29.619 50.3826C29.568 50.2195 29.517 50.0683 29.4662 49.929L28.1928 45.9354C28.1582 45.8503 28.1009 45.7763 28.0272 45.7214C27.9445 45.664 27.8451 45.6353 27.7445 45.6398H26.6684L29.1451 52.4054ZM34.8976 45.6387H33.5524V52.4054H34.8976V45.6387ZM36.941 45.6387H36.2378V52.4054H37.4199V48.3954C37.4199 48.2152 37.4097 48.0199 37.3893 47.8093L40.7114 52.1761C40.7678 52.2478 40.838 52.3076 40.9179 52.3519C40.9999 52.3902 41.0898 52.4085 41.1803 52.4054H41.8682V45.6387H40.6911V49.6028C40.6911 49.8035 40.7013 50.0159 40.7217 50.2398L37.3893 45.8474C37.3581 45.8101 37.3249 45.7744 37.29 45.7406C37.2354 45.6874 37.1645 45.6542 37.0888 45.6462C37.0397 45.6408 36.9904 45.6383 36.941 45.6387V45.6387V45.6387ZM42.5814 45.6387V46.729H44.4058V52.4059H45.7415V46.729H47.5656V45.6387H42.5823H42.5814ZM50.6885 45.6387H49.3227L46.8574 52.4054H47.901C48.0034 52.4086 48.1037 52.3751 48.1837 52.311C48.2531 52.2575 48.3067 52.1863 48.339 52.1048L48.7619 50.7799H51.2536L51.6816 52.1098C51.7145 52.1932 51.769 52.2662 51.8397 52.3213C51.9226 52.3807 52.0231 52.4101 52.1249 52.4048H53.1546L50.6885 45.6387ZM49.7507 47.7074C49.7878 47.6021 49.8286 47.4781 49.8731 47.3354C49.9176 47.1927 49.9601 47.0382 50.0006 46.8718C50.0445 47.0387 50.0887 47.1924 50.133 47.3329C50.1774 47.4733 50.2198 47.5964 50.2602 47.7022L50.9481 49.8424H49.0628L49.7507 47.7074ZM59.2282 51.7531V48.9811H56.9658V49.7353C56.9653 49.7678 56.9717 49.8 56.9844 49.8298C56.9972 49.8597 57.0161 49.8865 57.0399 49.9086C57.066 49.9328 57.0967 49.9515 57.1301 49.9637C57.1636 49.9759 57.1991 49.9814 57.2347 49.9799H58.0138V51.162C57.8445 51.2422 57.6679 51.3062 57.4865 51.3532C57.2889 51.4013 57.086 51.4244 56.8826 51.4219C56.5729 51.4261 56.2652 51.3717 55.9757 51.2613C55.7115 51.1595 55.4737 50.9993 55.28 50.7927C55.0807 50.5742 54.9291 50.3165 54.8348 50.0361C54.7249 49.7077 54.6716 49.363 54.677 49.0168C54.6731 48.6925 54.7221 48.3698 54.8223 48.0614C54.909 47.7918 55.0503 47.543 55.2375 47.3304C55.4184 47.1293 55.641 46.9702 55.8897 46.864C56.1622 46.7497 56.4553 46.6928 56.7507 46.697C56.9196 46.6955 57.0883 46.7074 57.2552 46.7326C57.3912 46.754 57.525 46.7873 57.6551 46.832C57.7716 46.8728 57.8849 46.9222 57.9941 46.9798C58.0993 47.0354 58.2046 47.0957 58.3099 47.1606C58.355 47.1922 58.4059 47.2146 58.4597 47.2265C58.5135 47.2383 58.5691 47.2394 58.6233 47.2297C58.672 47.2181 58.7178 47.1965 58.7577 47.1662C58.7976 47.1359 58.8308 47.0976 58.8551 47.0538L59.2374 46.4524C59.0977 46.3171 58.9449 46.1959 58.7813 46.0907C58.606 45.9783 58.4194 45.8844 58.2248 45.8104C58.0099 45.7293 57.7882 45.6679 57.5622 45.6271C57.3084 45.5814 57.0509 45.5593 56.793 45.5608C56.3014 45.5539 55.8129 45.6403 55.3535 45.8154C54.941 45.9741 54.5661 46.2171 54.2529 46.5289C53.9453 46.8402 53.7066 47.2126 53.5522 47.622C53.3851 48.0673 53.3022 48.5398 53.3076 49.0154C53.3024 49.4906 53.3898 49.9622 53.565 50.404C53.7294 50.8168 53.9786 51.1906 54.2966 51.501C54.6236 51.8153 55.0111 52.0597 55.4356 52.2195C55.9104 52.3965 56.4141 52.4837 56.9208 52.4766C57.3345 52.4791 57.7465 52.4217 58.1438 52.306C58.5357 52.1881 58.9033 52.0008 59.2291 51.7531V51.7531H59.2282ZM60.2843 45.6387V52.4054H64.4111L64.4162 51.3404H61.6289V49.5163H63.7945V48.4919H61.6289V46.7034H64.4117V45.6387H60.2843Z" fill="#4A6657"/>
</svg>
